<?xml version="1.0" encoding="UTF-8" standalone="no"?>
<svg
   xmlns:osb="http://www.openswatchbook.org/uri/2009/osb"
   xmlns:dc="http://purl.org/dc/elements/1.1/"
   xmlns:cc="http://creativecommons.org/ns#"
   xmlns:rdf="http://www.w3.org/1999/02/22-rdf-syntax-ns#"
   xmlns:svg="http://www.w3.org/2000/svg"
   xmlns="http://www.w3.org/2000/svg"
   xmlns:sodipodi="http://sodipodi.sourceforge.net/DTD/sodipodi-0.dtd"
   xmlns:inkscape="http://www.inkscape.org/namespaces/inkscape"
   inkscape:export-ydpi="96"
   inkscape:export-xdpi="96"
   inkscape:export-filename="C:\Users\yosoy\Desktop\actorsaccess.png"
   width="48.67609mm"
   height="35.698277mm"
   viewBox="0 0 48.67609 35.698277"
   version="1.1"
   id="svg8"
   inkscape:version="1.0 (4035a4fb49, 2020-05-01)"
   sodipodi:docname="actorsaccess.svg">
  <defs
     id="defs2">
    <linearGradient
       id="linearGradient2973"
       osb:paint="solid">
      <stop
         style="stop-color:#000000;stop-opacity:1;"
         offset="0"
         id="stop2971" />
    </linearGradient>
    <style
       id="style24">.a{fill:#c0392b;}.b{fill:#2bb2c0;}</style>
  </defs>
  <sodipodi:namedview
     id="base"
     pagecolor="#ffffff"
     bordercolor="#666666"
     borderopacity="1.0"
     inkscape:pageopacity="0.0"
     inkscape:pageshadow="2"
     inkscape:zoom="3.959798"
     inkscape:cx="159.77613"
     inkscape:cy="57.542667"
     inkscape:document-units="mm"
     inkscape:current-layer="layer1"
     inkscape:document-rotation="0"
     showgrid="false"
     inkscape:window-width="2560"
     inkscape:window-height="1361"
     inkscape:window-x="2391"
     inkscape:window-y="-9"
     inkscape:window-maximized="1" />
  <metadata
     id="metadata5">
    <rdf:RDF>
      <cc:Work
         rdf:about="">
        <dc:format>image/svg+xml</dc:format>
        <dc:type
           rdf:resource="http://purl.org/dc/dcmitype/StillImage" />
        <dc:title></dc:title>
      </cc:Work>
    </rdf:RDF>
  </metadata>
  <g
     transform="translate(-53.856045,-64.210379)"
     inkscape:label="Layer 1"
     inkscape:groupmode="layer"
     id="layer1">
    <g
       id="g3021"
       transform="translate(4.8108515,-8.6194423)">
      <g
         transform="matrix(0.96351734,0,0,0.92693689,-22.381906,50.331011)"
         id="g3012">
        <path
           style="fill:#b3b3b3;stroke:#b3b3b3;stroke-width:0.296227px;stroke-linecap:butt;stroke-linejoin:miter;stroke-opacity:1"
           d="M 98.082292,62.644077 117.22089,56.13614 100.01554,25.75365 99.829774,28.126967 113.14956,54.305481 Z"
           id="path2999" />
        <path
           style="fill:#808080;stroke:#808080;stroke-width:0.264583px;stroke-linecap:butt;stroke-linejoin:miter;stroke-opacity:1"
           d="m 96.100446,28.348215 -12.85119,26.269343 14.741069,7.9375 -0.09449,-3.212798 -11.684706,-6.072103 9.772041,-21.749056 z"
           id="path2993" />
        <path
           style="fill:#808080;stroke:#808080;stroke-width:0.267201px;stroke-linecap:butt;stroke-linejoin:miter;stroke-opacity:1"
           d="m 98.107105,24.332005 -1.062062,2.122191 -1.793711,29.975953 2.784971,1.398717 z"
           id="path2995" />
        <path
           style="fill:#b3b3b3;stroke:#b3b3b3;stroke-width:0.283998px;stroke-linecap:butt;stroke-linejoin:miter;stroke-opacity:1"
           d="M 98.155269,61.640684 101.38648,59.434112 99.679436,31.662181 98.137581,28.411762 Z"
           id="path2997" />
      </g>
      <path
         d="m 67.565353,79.549041 v 2.675067 h -1.038201 v 2.058053 h 1.041009 v 4.38743 c 0,1.149086 0.250246,1.961884 0.719099,2.43523 0.468853,0.473358 1.211211,0.71348 2.19494,0.71348 a 8.6723435,10.341714 0 0 0 1.115729,-0.07234 7.5821882,9.0417105 0 0 0 0.86292,-0.195615 l -0.0085,-2.037284 h -0.210112 a 2.2550969,2.6891885 0 0 1 -0.445506,0.185568 2.1803104,2.6000061 0 0 1 -0.515165,0.09918 1.4870983,1.7733551 0 0 1 -0.724718,-0.171502 0.78238057,0.93298378 0 0 1 -0.344943,-0.46628 1.46984,1.7527747 0 0 1 -0.112362,-0.661896 v -0.864893 -3.336971 h 2.361234 v -2.058053 h -2.361234 v -2.689133 z m 9.984249,2.414458 c -1.342318,0 -2.396998,0.443923 -3.164039,1.33117 -0.767038,0.887246 -1.15056,2.109314 -1.15056,3.666576 0.01725,1.559543 0.40078,2.778428 1.15056,3.656527 0.749783,0.878097 1.810702,1.317089 3.183702,1.317089 1.36725,-0.0064 2.428731,-0.455015 3.184266,-1.34456 0.754637,-0.888482 1.13281,-2.105657 1.133704,-3.65116 -0.01033,-1.534407 -0.39211,-2.746876 -1.144942,-3.637772 -0.753614,-0.89182 -1.817769,-1.33787 -3.192691,-1.33787 z m -24.702762,0.0068 a 11.594765,13.826682 0 0 0 -1.808985,0.171504 c -0.602127,0.114336 -1.036822,0.214185 -1.303369,0.298791 v 2.267085 h 0.233146 c 0.204224,-0.09261 0.543369,-0.229705 1.017976,-0.404642 a 4.5101939,5.3783771 0 0 1 1.334829,-0.263956 3.8486221,4.589457 0 0 1 1.573592,0.298123 0.90606573,1.0804775 0 0 1 0.532022,1.073915 v 0.05094 c -0.745946,0.05264 -1.464154,0.130912 -2.15449,0.233808 a 6.1382358,7.3198066 0 0 0 -1.743256,0.537958 2.5887592,3.0870786 0 0 0 -1.095504,1.029027 2.4046695,2.8675529 0 0 0 -0.385392,1.684232 2.3011192,2.7440698 0 0 0 0.758988,2.116327 2.6664219,3.1796909 0 0 0 1.872468,0.830066 4.3778795,5.220593 0 0 0 0.877526,-0.0958 3.6817909,4.3905119 0 0 0 0.773594,-0.298123 3.6645325,4.3699314 0 0 0 0.57528,-0.408668 c 0.201349,-0.174937 0.370989,-0.322092 0.506179,-0.445511 v 1.001568 h 2.497186 v -6.400649 c 0,-1.111349 -0.319303,-1.958662 -0.957863,-2.483462 -0.632808,-0.528238 -1.667645,-0.79254 -3.103927,-0.79254 z m 10.288745,0.0068 a 6.4373813,7.6765356 0 0 0 -1.725839,0.278025 4.1851608,4.9907772 0 0 0 -1.472469,0.871589 3.5868697,4.277319 0 0 0 -1.029774,1.581058 4.5418343,5.4161081 0 0 0 -0.367977,2.270417 4.5274523,5.3989576 0 0 0 0.327527,2.178645 3.451679,4.1161049 0 0 0 0.969662,1.540188 4.1621496,4.9633365 0 0 0 1.487076,0.905089 6.7767965,8.0812861 0 0 0 1.883704,0.29142 5.8563487,6.983658 0 0 0 1.441008,-0.164126 7.1536047,8.5306274 0 0 0 1.248875,-0.53193 v -2.572572 h -0.35955 c -0.101637,0.105142 -0.214352,0.219535 -0.337079,0.343004 a 3.0777471,3.6701936 0 0 1 -0.419661,0.343017 2.7239499,3.2482927 0 0 1 -0.635955,0.305487 3.1439043,3.7490856 0 0 1 -0.862919,0.129966 2.0796365,2.4799531 0 0 1 -1.58202,-0.70276 2.4305571,2.8984237 0 0 1 -0.557864,-2.058051 2.6146468,3.1179494 0 0 1 0.54382,-2.082173 1.9214345,2.2912982 0 0 1 1.553367,-0.765072 2.876399,3.4300872 0 0 1 0.799437,0.119919 3.5897462,4.2807492 0 0 1 0.632584,0.305494 3.4315442,4.0920943 0 0 1 0.50674,0.394594 c 0.138067,0.123482 0.255571,0.240071 0.353369,0.343009 h 0.35955 V 82.72877 A 7.1392228,8.5134771 0 0 0 64.62547,82.186789 6.0663258,7.2340544 0 0 0 63.135585,81.977096 Z m 30.970168,0.02411 c -1.246439,0.0025 -2.228318,0.303283 -2.945502,0.902405 a 2.2407148,2.6720379 0 0 0 -1.078649,2.257026 2.1716812,2.5897158 0 0 0 0.517979,1.763278 3.1237695,3.725075 0 0 0 1.596625,1.029026 8.3415576,9.9472536 0 0 0 0.86292,0.212379 c 0.314488,0.05717 0.567228,0.112142 0.758987,0.164799 a 2.7268263,3.2517228 0 0 1 0.802805,0.294778 0.45447106,0.54195381 0 0 1 0.210113,0.501115 0.52638104,0.62770599 0 0 1 -0.35955,0.579495 2.7728487,3.3066042 0 0 1 -1.101684,0.198974 4.6827778,5.5841823 0 0 1 -1.067411,-0.1407 5.9541462,7.1002809 0 0 1 -0.891571,-0.343004 4.1477676,4.9461861 0 0 1 -0.704494,-0.407994 c -0.166832,-0.12005 -0.313888,-0.236701 -0.440448,-0.343007 h -0.229777 v 2.496862 a 7.1622339,8.5409177 0 0 0 1.374719,0.517864 8.4882539,10.122188 0 0 0 1.910107,0.236478 c 1.269449,0 2.269392,-0.2982 2.999995,-0.895029 a 2.2838608,2.7234893 0 0 0 1.092695,-2.346128 v -0.01738 A 2.0652546,2.4628028 0 0 0 96.947883,86.992185 2.8016126,3.3409049 0 0 0 95.47485,86.018088 c -0.299148,-0.0892 -0.600921,-0.164749 -0.897189,-0.223087 -0.296267,-0.05821 -0.572576,-0.119788 -0.831458,-0.18155 A 2.5887592,3.0870786 0 0 1 92.854632,85.27044 0.50912265,0.60712547 0 0 1 92.664743,84.759279 c 0,-0.246967 0.129769,-0.435673 0.417415,-0.569449 a 2.7642195,3.2963139 0 0 1 1.029773,-0.202321 4.5648454,5.4435487 0 0 1 1.457863,0.291424 5.1487545,6.1398565 0 0 1 1.280334,0.747653 h 0.218541 v -2.352828 a 6.8228188,8.1361674 0 0 0 -1.268538,-0.456229 7.7432663,9.2337951 0 0 0 -1.694378,-0.216386 z m -5.430328,0.192272 a 3.2388255,3.8622785 0 0 0 -1.136515,0.281372 5.2839453,6.3010707 0 0 0 -1.438199,1.13488 v -1.372036 h -2.536512 v 9.409293 h 2.528084 v -6.284027 a 5.2810688,6.2976405 0 0 1 0.888764,-0.284725 5.8103263,6.9287766 0 0 1 0.952244,-0.08575 c 0.161081,0 0.356765,0.01355 0.595506,0.03417 a 2.3615236,2.8161017 0 0 1 0.520223,0.103163 h 0.224718 l -0.02304,-2.912352 c -0.07767,-0.02397 -0.17546,-0.02411 -0.28764,-0.02411 z m -11.169081,1.865778 a 1.9645805,2.3427496 0 0 1 0.06292,0 1.909929,2.277578 0 0 1 0.682022,0.144037 1.2397281,1.4783678 0 0 1 0.540447,0.487044 2.0710073,2.4696628 0 0 1 0.351124,0.895704 4.6022387,5.4881399 0 0 1 0.126405,1.388794 4.4699242,5.3303558 0 0 1 -0.123597,1.402847 1.996221,2.3804807 0 0 1 -0.367975,0.868245 1.2282224,1.4646473 0 0 1 -0.532021,0.448856 1.8782885,2.2398469 0 0 1 -0.658989,0.13733 1.9128053,2.281008 0 0 1 -0.713483,-0.147377 1.3461548,1.6052809 0 0 1 -0.534828,-0.480346 1.9128053,2.281008 0 0 1 -0.351126,-0.908435 4.547587,5.4229681 0 0 1 -0.120785,-1.334525 4.3922615,5.2377435 0 0 1 0.138202,-1.430317 1.9818389,2.3633301 0 0 1 0.368539,-0.899059 1.3145144,1.5675499 0 0 1 0.546067,-0.452209 1.9645805,2.3427496 0 0 1 0.587076,-0.120592 z m -23.0949,3.169481 v 1.955545 a 2.4104225,2.8744133 0 0 1 -0.678651,0.476327 2.0508724,2.4456521 0 0 1 -0.767975,0.182224 2.6117703,3.1145192 0 0 1 -0.701685,-0.07909 1.0096161,1.2039607 0 0 1 -0.388201,-0.247199 0.59253823,0.70659801 0 0 1 -0.210112,-0.343017 1.5187388,1.8110862 0 0 1 -0.04045,-0.472971 0.88017814,1.0496068 0 0 1 0.198315,-0.716836 1.2886268,1.5366791 0 0 1 0.575279,-0.412013 5.1947768,6.1947378 0 0 1 0.903369,-0.205663 c 0.399821,-0.05821 0.76782,-0.102936 1.110111,-0.137342 z"
         style="fill:#0f6ac0;fill-opacity:1;stroke-width:1.18717"
         id="path30" />
      <path
         d="m 78.075009,93.969595 c -1.315263,0.0086 -2.351705,0.465931 -3.109247,1.370375 -0.757546,0.904431 -1.1363,2.133084 -1.1363,3.686169 0.002,1.566771 0.401057,2.773931 1.198569,3.621251 0.797513,0.84735 1.94581,1.27067 3.444552,1.27067 a 7.9460557,9.9898819 0 0 0 1.591348,-0.18468 8.5755273,10.781262 0 0 0 1.529078,-0.59284 v -2.41886 h -0.272498 a 4.5125749,5.6732661 0 0 1 -1.125655,0.73668 4.0547775,5.0977175 0 0 1 -1.468938,0.3426 c -0.797509,0 -1.402502,-0.19493 -1.814879,-0.58548 A 1.7221904,2.1651594 0 0 1 76.24363,99.526637 h 5.482435 l 0.0085,-1.065919 c 0,-1.450281 -0.306407,-2.561574 -0.918614,-3.333538 -0.612219,-0.771963 -1.525611,-1.157585 -2.740956,-1.157585 z m -25.413676,0.0374 a 10.984415,13.809744 0 0 0 -1.713759,0.171303 c -0.568615,0.11417 -0.979895,0.213915 -1.234228,0.29843 v 2.264294 h 0.220342 c 0.193474,-0.09241 0.515298,-0.229427 0.96492,-0.404153 a 4.2727763,5.3717883 0 0 1 1.264566,-0.263629 3.6324047,4.5667053 0 0 1 1.487562,0.297757 0.85564525,1.075728 0 0 1 0.50668,1.072595 v 0.05086 c -0.706679,0.05257 -1.387927,0.130757 -2.043739,0.233522 a 5.8178426,7.3142653 0 0 0 -1.634991,0.537304 2.4524865,3.0832969 0 0 0 -1.037838,1.027758 2.2780873,2.8640402 0 0 0 -0.365104,1.682174 2.1799879,2.7407082 0 0 0 0.732871,2.13112 2.5206109,3.168944 0 0 0 1.781886,0.82904 4.1665017,5.2381787 0 0 0 0.817497,-0.0957 3.4879805,4.3851333 0 0 0 0.7334,-0.29841 3.6051551,4.5324464 0 0 0 0.544998,-0.40749 c 0.190749,-0.17473 0.351456,-0.32224 0.479535,-0.44565 l -0.02183,0.98362 h 2.375846 v -6.392752 c 0,-1.109986 -0.30243,-1.956269 -0.910101,-2.480433 -0.606764,-0.527598 -1.589662,-0.791569 -2.948522,-0.791569 z m 33.964383,0 c -1.179006,0.0025 -2.109199,0.302928 -2.790451,0.901303 a 2.1227631,2.6687648 0 0 0 -1.021868,2.254271 2.0464634,2.57284 0 0 0 0.504015,1.791897 2.9375337,3.6931045 0 0 0 1.509921,1.027769 7.9024559,9.9350681 0 0 0 0.817494,0.212105 c 0.302477,0.0583 0.545103,0.1132 0.722228,0.1646 a 2.5860105,3.2511652 0 0 1 0.757354,0.29441 0.4305476,0.54128989 0 0 1 0.199053,0.5005 0.49594723,0.62351113 0 0 1 -0.337965,0.57879 2.6432352,3.3231089 0 0 1 -1.04635,0.19872 4.4553503,5.6013226 0 0 1 -1.011227,-0.14051 5.7415431,7.2183406 0 0 1 -0.844637,-0.34258 4.0357026,5.0737362 0 0 1 -0.667408,-0.40748 c -0.158049,-0.11992 -0.297363,-0.23643 -0.417265,-0.34261 h -0.217679 v 2.47642 a 6.8478869,8.6092501 0 0 0 1.302352,0.51722 8.0414303,10.109788 0 0 0 1.809563,0.23685 c 1.20263,0 2.149927,-0.2985 2.842069,-0.8946 a 2.1609131,2.7167271 0 0 0 1.038369,-2.34324 1.9701639,2.4769152 0 0 0 -0.45239,-1.668103 2.6759352,3.3642195 0 0 0 -1.398152,-0.972909 c -0.283401,-0.0891 -0.563907,-0.164544 -0.847298,-0.222814 -0.283401,-0.05819 -0.545097,-0.11967 -0.790352,-0.181339 A 2.4715613,3.1072779 0 0 1 85.440453,97.303084 0.48232231,0.60638171 0 0 1 85.260561,96.79255 c 0,-0.246664 0.125608,-0.435141 0.398103,-0.568758 a 2.6023603,3.2717206 0 0 1 0.972373,-0.20207 4.3245509,5.4368801 0 0 1 1.381651,0.291071 4.8777228,6.1323348 0 0 1 1.212938,0.746733 h 0.207036 V 94.678802 A 6.3982643,8.0439789 0 0 0 88.2309,94.223139 7.3165844,9.1985022 0 0 0 86.625716,94.007 Z m -24.197548,0.006 a 6.098516,7.6671315 0 0 0 -1.634989,0.277698 3.9566781,4.9743856 0 0 0 -1.403474,0.870523 3.3898811,4.2618014 0 0 0 -0.972904,1.579107 4.2618762,5.3580847 0 0 0 -0.348607,2.267656 4.2455263,5.3375295 0 0 0 0.318801,2.192691 3.2699818,4.1110625 0 0 0 0.918086,1.5383 3.951228,4.9675339 0 0 0 1.406134,0.90465 6.4527641,8.1124967 0 0 0 1.787741,0.29107 v -0.0174 a 5.5480692,6.9751027 0 0 0 1.365152,-0.16394 6.7770373,8.520177 0 0 0 1.182602,-0.53128 v -2.56941 h -0.340623 c -0.09537,0.0993 -0.204354,0.21932 -0.318804,0.3426 a 2.9157337,3.6656974 0 0 1 -0.398102,0.34258 2.6323353,3.3094052 0 0 1 -0.601946,0.30512 2.9784084,3.7444927 0 0 1 -0.817495,0.12981 1.9674389,2.4734892 0 0 1 -1.498741,-0.70191 2.3026121,2.8948731 0 0 1 -0.528498,-2.055527 2.4770113,3.1141299 0 0 1 0.51466,-2.079634 1.8202899,2.2884913 0 0 1 1.471598,-0.764116 2.7386096,3.4430149 0 0 1 0.757354,0.119792 3.2890567,4.1350438 0 0 1 0.597154,0.305104 3.1500825,3.9603235 0 0 1 0.482197,0.394117 c 0.1308,0.123398 0.242649,0.23978 0.335298,0.342593 h 0.340624 V 94.763907 A 6.7634124,8.5030476 0 0 0 63.839627,94.22258 5.7469929,7.2251924 0 0 0 62.428168,94.013151 Z m 32.154821,0 c -1.186276,0.0025 -2.117313,0.300813 -2.793108,0.894628 a 2.1227631,2.6687648 0 0 0 -1.021871,2.254246 2.0464634,2.57284 0 0 0 0.49284,1.781203 2.9375337,3.6931045 0 0 0 1.509919,1.027756 8.0441552,10.113213 0 0 0 0.817494,0.212782 c 0.305198,0.0583 0.545104,0.11258 0.72223,0.16395 a 2.5587608,3.2169064 0 0 1 0.760013,0.3051 0.43327259,0.54471577 0 0 1 0.201714,0.50051 0.49867222,0.62693702 0 0 1 -0.340622,0.57877 2.6377853,3.3162571 0 0 1 -1.043691,0.19873 4.4199254,5.5567861 0 0 1 -1.011226,-0.14051 5.6407186,7.0915827 0 0 1 -0.844639,-0.34259 4.0874771,5.1388282 0 0 1 -0.67007,-0.40748 c -0.158051,-0.11984 -0.294697,-0.23634 -0.414601,-0.34251 H 90.72703 v 2.47639 a 6.8124618,8.5647131 0 0 0 1.305012,0.51724 8.0060053,10.065251 0 0 0 1.809562,0.23687 c 1.200809,0 2.147268,-0.29853 2.839412,-0.89462 a 2.1609131,2.7167271 0 0 0 1.038369,-2.34321 1.9565392,2.4597857 0 0 0 -0.441747,-1.668108 2.6759352,3.3642195 0 0 0 -1.397617,-0.972911 c -0.283393,-0.08911 -0.567163,-0.164544 -0.847835,-0.222802 -0.280674,-0.05819 -0.544633,-0.11967 -0.787156,-0.181339 a 2.4524865,3.0832969 0 0 1 -0.845173,-0.342593 0.48232231,0.60638171 0 0 1 -0.179359,-0.510535 c 0,-0.246662 0.122403,-0.435139 0.394908,-0.568744 a 2.6187103,3.2922759 0 0 1 0.975569,-0.20207 4.3082011,5.4163247 0 0 1 1.378988,0.291059 4.9049728,6.1665937 0 0 1 1.21507,0.746733 h 0.204371 v -2.374013 a 6.3601145,7.9960166 0 0 0 -1.199099,-0.455675 7.3574591,9.2498905 0 0 0 -1.607316,-0.216128 z m -24.314101,0.01743 a 6.098516,7.6671315 0 0 0 -1.60625,0.2777 3.9566781,4.9743856 0 0 0 -1.39762,0.869849 3.3898811,4.2618014 0 0 0 -0.972906,1.57978 4.2618762,5.3580847 0 0 0 -0.351799,2.267657 4.2428013,5.3341035 0 0 0 0.327316,2.175289 3.2699818,4.1110625 0 0 0 0.918089,1.5383 3.9294281,4.9401267 0 0 0 1.406133,0.90465 6.4527641,8.1124967 0 0 0 1.78774,0.29107 v -0.0173 a 5.5480692,6.9751027 0 0 0 1.365151,-0.17129 6.6707628,8.3865674 0 0 0 1.17994,-0.53062 v -2.5694 h -0.33796 c -0.09811,0.105 -0.204358,0.21926 -0.318802,0.34258 a 2.9157337,3.6656974 0 0 1 -0.398103,0.34258 2.6323353,3.3094052 0 0 1 -0.601949,0.30512 2.9784084,3.7444927 0 0 1 -0.817493,0.1298 1.9674389,2.4734892 0 0 1 -1.498742,-0.70256 2.3026121,2.8948731 0 0 1 -0.528496,-2.055523 2.4770113,3.1141299 0 0 1 0.514659,-2.072261 1.8202899,2.2884913 0 0 1 1.471598,-0.764139 2.7386096,3.4430149 0 0 1 0.757353,0.119792 3.2890567,4.1350438 0 0 1 0.597159,0.305116 3.1500825,3.9603235 0 0 1 0.482194,0.394104 c 0.130797,0.123398 0.242606,0.23978 0.3353,0.342606 h 0.337962 v -2.569431 a 6.7334375,8.4653628 0 0 0 -1.210278,-0.52458 5.7469929,7.2251924 0 0 0 -1.411455,-0.208769 6.098516,7.6671315 0 0 0 -0.02874,0 z m 7.697551,1.827384 a 1.4306172,1.7985898 0 0 1 1.004836,0.48176 1.6813157,2.1137713 0 0 1 0.373623,1.421873 h -3.098606 a 1.5341664,1.9287733 0 0 1 0.49869,-1.445966 1.7521653,2.2028443 0 0 1 1.136301,-0.452326 1.4306172,1.7985898 0 0 1 0.08517,-0.0048 z m -23.800508,3.418162 v 1.935759 a 2.3216871,2.9188544 0 0 1 -0.646122,0.49312 1.9429142,2.4426561 0 0 1 -0.72755,0.18133 2.4742861,3.110704 0 0 1 -0.664744,-0.0789 0.93739479,1.1785046 0 0 1 -0.367768,-0.24623 0.56134689,0.7057324 0 0 1 -0.199052,-0.34259 1.4224421,1.7883122 0 0 1 -0.04099,-0.47307 0.83657032,1.0517468 0 0 1 0.191068,-0.71594 1.1962682,1.5039637 0 0 1 0.544997,-0.410852 5.0166971,6.3070551 0 0 1 0.857945,-0.205419 c 0.378773,-0.05831 0.727931,-0.102803 1.052207,-0.137163 z"
         style="fill:#0f6ac0;fill-opacity:1;stroke-width:1.15479"
         id="path963" />
    </g>
  </g>
</svg>
